# xmcd
# 
# Track frame offsets:
#     150
#     13155
#     25425
#     36130
#     49465
#     60640
#     72775
#     82740
#     94370
#     105255
#     116620
#     130433
#     141316
#     153476
#     165261
#     176706
#     188886
#     201806
#     213946
#     226521
# 
# Disc length: 3176
# 
# Revision: 2
# Processed by: cddbd v1.5.2PL0 Copyright (c) Steve Scherf et al.
# Submitted via: BonkEnc v1.0.15
# 
DISCID=0f0c6614
DTITLE=Hank Williams Sr - Honky Tonk Man Disc1
DYEAR=0
DGENRE=Country
TTITLE0=Jambalaya (On The Bayou)
TTITLE1=Lost Highway
TTITLE2=I Can't Help It (If I'm Still In Love With You)
TTITLE3=Hey, Good Lookin'
TTITLE4=(I Heard That) Lonesome Whistle
TTITLE5=Half As Much
TTITLE6=Honky Tonk Blues
TTITLE7=Settin' The Woods On Fire
TTITLE8=I'll Never Get Out Of This World Alive
TTITLE9=Baby We're Really In Love
TTITLE10=Ramblin' Man
TTITLE11=Moanin' The Blues
TTITLE12=Howlin' At The Moon
TTITLE13=Why Should We Try Anymore?
TTITLE14=My Son Calls Another Man Daddy
TTITLE15=My Sweet Love Ain't Around
TTITLE16=I'm A Long Gone Daddy
TTITLE17=(Last Night) I Heard You Crying In Your Sleep
TTITLE18=Pan American
TTITLE19=A Mansion On The Hill
EXTD=
EXTT0=
EXTT1=
EXTT2=
EXTT3=
EXTT4=
EXTT5=
EXTT6=
EXTT7=
EXTT8=
EXTT9=
EXTT10=
EXTT11=
EXTT12=
EXTT13=
EXTT14=
EXTT15=
EXTT16=
EXTT17=
EXTT18=
EXTT19=
PLAYORDER=
